# xmcd
#
# Track frame offsets:
#	150
#	12782
#	34182
#	50910
#	67482
#	82825
#	102320
#	117552
#	152257
#	167415
#	185457
#	211992
#	236890
#	263492
#
# Disc length: 3775 seconds
#
# Revision: 0
# Processed by: cddbd v1.5.1PL0 Copyright (c) Steve Scherf et al.
# Submitted via: dBpowerAMP V4.0
#
DISCID=ba0ebd0e
DTITLE=Various Artist - Funk Hits
DYEAR=1997
DGENRE=Disco
TTITLE0=James Brown - Sex Machine
TTITLE1=Kool and The Gang - Get Down On It
TTITLE2=Parliament - Give Up The Funk
TTITLE3=Commodores - Brick House
TTITLE4=Rick James - Super Freak
TTITLE5=Cameo - Word Up
TTITLE6=Barry White - You're The First, The Last, My Everithing
TTITLE7=Kurtis Blow - The Breaks
TTITLE8=Edwin Starr - War
TTITLE9=Teena Marie - Behind The Groove
TTITLE10=The Brother Jonhson - Stomp !
TTITLE11=Gap Band - Burn Rubber On Me
TTITLE12=Junior - Mama Used To Say
TTITLE13=Ohio Players - Fire
EXTD=
EXTT0=
EXTT1=
EXTT2=
EXTT3=
EXTT4=
EXTT5=
EXTT6=
EXTT7=
EXTT8=
EXTT9=
EXTT10=
EXTT11=
EXTT12=
EXTT13=
PLAYORDER=
